<?xml version="1.0" encoding="UTF-8"?>
<!DOCTYPE svg PUBLIC "-//W3C//DTD SVG 1.1//EN" "http://www.w3.org/Graphics/SVG/1.1/DTD/svg11.dtd">
<!-- Creator: CorelDRAW 2021 (64-Bit Evaluation Version) -->
<svg xmlns="http://www.w3.org/2000/svg" xml:space="preserve" width="6in" height="6in" version="1.1" style="shape-rendering:geometricPrecision; text-rendering:geometricPrecision; image-rendering:optimizeQuality; fill-rule:evenodd; clip-rule:evenodd" viewBox="0 0 6000 6000" xmlns:xlink="http://www.w3.org/1999/xlink" xmlns:xodm="http://www.corel.com/coreldraw/odm/2003">
  <defs>
    <style type="text/css">
      <![CDATA[
      .fil0 {fill:white}
      ]]>
    </style>
  </defs>
  <g id="Layer_x0020_1">
    <metadata id="CorelCorpID_0Corel-Layer"/>
    <path class="fil0" d="M2074.02 2948.8c-52.74,61.13 -439.65,440.51 -508.02,508.87l-765.44 765.45c-80.59,80.59 -163.99,155.44 -221.8,291.92 -174.94,413.02 74.37,853.87 472.99,947.68 145.87,34.33 312.27,19.26 437.28,-37.59 140.52,-63.91 204.56,-134.44 289.35,-219.24l1277.59 -1277.39 1276.91 1275.5c79.48,79.48 154.15,165.56 291.63,222.01 603.16,247.69 1151.26,-369.08 909.02,-909.13 -27.63,-61.6 -58.28,-113.72 -94.53,-157.24l-382.69 -387.72c-26.71,-26.71 -996.67,-987.81 -1019.18,-1023.12l1274.65 -1276.31c79.95,-79.95 163.38,-156.41 221.37,-292.15 55.86,-130.77 73.14,-281.43 37.84,-432.01 -16.2,-69.09 -42.67,-130.5 -72.23,-184.33 -29.5,-53.72 -75.14,-111.58 -110,-146.82 -33.4,-33.76 -92.21,-79.76 -142.97,-108.88 -192.24,-110.27 -423.57,-125.35 -622.2,-37.65 -139.94,61.8 -205.41,134.84 -289.62,219.06 -86.81,86.8 -169.99,169.99 -256.8,256.8 -19.77,19.77 -997.38,1007.89 -1027.05,1021.11 -21,-29.1 -1223.87,-1226.83 -1334.62,-1336.48l-66.09 -62.33c-38.44,-33.3 -101.55,-73.18 -159.59,-97.23 -609.56,-252.58 -1152.07,369.05 -912.26,907.38 63.2,141.87 134,203.69 219.48,289.17 83.23,83.23 1263.46,1255.57 1276.99,1280.67z" stroke="black" stroke-width="200px"/>
  </g>
</svg>
